<?xml version="1.0" encoding="UTF-8" standalone="no"?>
<!DOCTYPE svg PUBLIC "-//W3C//DTD SVG 1.1//EN" "http://www.w3.org/Graphics/SVG/1.1/DTD/svg11.dtd">
<svg width="100%" height="100%" viewBox="0 0 318 240" version="1.1" xmlns="http://www.w3.org/2000/svg" xmlns:xlink="http://www.w3.org/1999/xlink" xml:space="preserve" xmlns:serif="http://www.serif.com/" style="fill-rule:evenodd;clip-rule:evenodd;stroke-linejoin:round;stroke-miterlimit:2;">
    <g transform="matrix(0.375488,0,0,0.375488,273.627,122.529)">
        <g id="Layer-1" serif:id="Layer 1">
            <path d="M0,-13.505L-17.774,-11.154L-38.646,-18.099L-15.322,-26.351L5.347,-48.876L-17.241,-38.16L-38.287,-33.621L-21.015,-47.246L-11.262,-74.379L-30.315,-54.042L-43.542,-49.752L-35.938,-62.784L-31.479,-88.644L-48.378,-64.632L-62.436,-52.782L-102.381,-43.571L-130.738,-42.703L-253.35,-25.006L-281.762,-28.766L-287.627,-46.556L-291.69,-60.909L-302.04,-75.435L-317.646,-80.615L-327.578,-86.314L-339.061,-79.853L-343.128,-67.764L-336.772,-70.3L-331.872,-64.739L-327.746,-53.099L-340.239,-33.459L-353.645,-25.694L-477.097,-34.224L-505.446,-32.976L-542.982,-42.161L-564.011,-54.599L-578.967,-76.721L-573.991,-48.109L-562.566,-36.254L-584.139,-41.938L-602.095,-57.029L-590.295,-37.378L-562.389,-20.327L-594.457,-21.219L-615.938,-30.973L-602.154,-15.334L-566.6,-2.138L-588.467,4.37L-602.592,2.961L-579.373,18.863L-555.716,16.467L-564.378,23.347L-584.459,33.976L-564.77,39.608L-548.612,34.971L-561.191,47.841L-569.707,48.62L-547.356,61.45L-528.198,49.778L-542.715,64.625L-527.819,73.18L-514.271,59.318L-519.352,74.433L-506.292,80.899L-493.615,63.962L-492.169,82.311L-476.349,91.903L-462.606,69.911L-453.71,92.534L-439.583,93.943L-431.603,75.866L-424.395,90.301L-413.992,89.575L-406.303,83.685L-402.626,87.855L-389.418,88.224L-385.501,82.231L-380.904,87.446L-362.907,84.894L-357.972,75.881L-353.33,79.061L-333.397,74.529L-346.467,107.726L-339.504,132.329L-335.147,108.044L-329.729,118.361L-337.911,144.576L-325.095,161.203L-321.997,150.106L-313.482,149.328L-307.291,166.787L-294.086,167.156L-293.939,161.055L-288.426,167.31L-277.929,162.52L-275.847,154.442L-269.416,161.739L-259.736,151.84L-262.923,127.345L-259.201,129.481L-253.061,148.974L-243.51,118.052L-250.569,97.519L-261.947,86.691L-261.609,72.462L-250.628,87.007L-246.942,79.526L-242.516,76.003L-237.014,84.634L-218.895,85.839L-214.647,80.294L-210.353,85.981L-197.199,84.632L-193.802,80.197L-185.75,85.496L-175.325,85.446L-169.065,70.507L-159.938,87.951L-145.938,85.493L-138.515,62.261L-123.393,83.174L-108.229,72.425L-107.963,54.019L-94.228,69.967L-81.614,62.545L-87.652,47.845L-73.252,60.664L-58.935,51.026L-74.369,37.291L-54.506,47.505L-32.068,32.055L-44.386,31.81L-55.927,21.99L-35.537,24.581L-15.156,13.61L-38.085,8.278L-47.165,2.064L-23.366,0.653L0,-13.505ZM-348.543,-167.051C-344.013,-159.137 -343.508,-157.789 -340.333,-153.895C-337.158,-150.001 -325.293,-146.121 -325.293,-146.121L-317.481,-135.9L-317.813,-105.217L-311.006,-101.314L-297.378,-96.787C-295.293,-96.093 -293.346,-95.079 -291.599,-93.792L-292.092,-135.91L-284.273,-146.139C-284.273,-146.139 -273.781,-150.346 -269.246,-153.925C-264.712,-157.506 -264.742,-157.42 -261.055,-167.087C-257.368,-176.755 -256.227,-177.406 -255.023,-188.375C-253.654,-200.868 -255.044,-242.711 -255.044,-242.711L-258.505,-279.449L-269.124,-244.481L-262.548,-241.547C-262.548,-241.547 -265.197,-199.234 -266.749,-192.726C-268.303,-186.215 -271.21,-179.713 -276.933,-173.991C-282.655,-168.267 -285.852,-169.176 -285.852,-169.176L-294.818,-173.204L-299.202,-272.578L-294.655,-273.531L-304.898,-315.173L-315.027,-273.515L-310.484,-272.574L-314.779,-173.197L-323.348,-169.158C-323.348,-169.158 -327.008,-168.308 -332.665,-173.964C-339.734,-181.032 -340.747,-184.484 -342.869,-192.691C-344.991,-200.897 -347.106,-241.514 -347.106,-241.514L-340.529,-244.455L-351.182,-279.411L-354.616,-242.672C-354.616,-242.672 -355.385,-199.909 -354.594,-188.331C-353.803,-176.755 -353.072,-174.966 -348.543,-167.051M-159.458,187.791L-178.961,207.627C-178.961,207.627 -203.686,226.888 -220.425,231.976C-237.162,237.065 -276.008,235.99 -276.008,235.99L-282.373,208.957L-284.29,185.509C-287.448,186.456 -290.73,186.631 -293.891,186.079C-294.775,186.168 -295.656,186.292 -296.555,186.268L-309.765,185.899C-315.086,185.75 -320.003,183.577 -323.66,180.022C-323.683,180.026 -323.705,180.024 -323.725,180.028L-326.287,208.851L-332.783,235.833C-332.783,235.833 -372.731,236.675 -388.331,231.39C-403.933,226.103 -429.684,206.755 -429.684,206.755L-449.063,186.771L-445.01,180.363L-474.711,146.802L-465.037,192.636L-456.435,192.5L-437.979,217.642C-437.979,217.642 -412.544,243.855 -399.513,251.069C-386.481,258.282 -329.744,267.037 -329.744,267.037C-329.744,267.037 -326.447,268.055 -318.858,275.64C-311.272,283.227 -304.756,300.735 -304.756,300.735L-304.752,301.664L-304.584,301.214L-304.419,301.668L-304.407,300.74C-304.407,300.74 -296.934,282.434 -290.19,275.691C-283.446,268.946 -279.255,267.171 -279.255,267.171C-279.255,267.171 -227.182,261.472 -209.377,251.742C-191.574,242.011 -170.741,218.578 -170.741,218.578L-152.123,193.579L-143.534,193.77L-133.515,148.023L-163.46,181.35L-159.458,187.791Z" style="fill-rule:nonzero;"/>
        </g>
    </g>
</svg>
